<?xml version="1.0" encoding="UTF-8" standalone="no"?>
<!DOCTYPE svg PUBLIC "-//W3C//DTD SVG 1.1//EN"
 "http://www.w3.org/Graphics/SVG/1.1/DTD/svg11.dtd">
<!-- Generated by graphviz version 2.44.1 (0)
 -->
<!-- Pages: 1 -->
<svg width="4001pt" height="620pt"
 viewBox="0.00 0.00 4000.97 620.00" xmlns="http://www.w3.org/2000/svg" xmlns:xlink="http://www.w3.org/1999/xlink">
<g id="graph0" class="graph" transform="scale(1 1) rotate(0) translate(4 616)">
<polygon fill="white" stroke="transparent" points="-4,4 -4,-616 3996.97,-616 3996.97,4 -4,4"/>
<!-- [root] module.aws&#45;ec2.aws_instance.ec2_instance (expand) -->
<g id="node1" class="node">
<title>[root] module.aws&#45;ec2.aws_instance.ec2_instance (expand)</title>
<polygon fill="none" stroke="black" points="1912.2,-324 1586.2,-324 1586.2,-288 1912.2,-288 1912.2,-324"/>
<text text-anchor="middle" x="1749.2" y="-302.3" font-family="Times,serif" font-size="14.00">module.aws&#45;ec2.aws_instance.ec2_instance</text>
</g>
<!-- [root] module.aws&#45;ec2.aws_key_pair.key_pair (expand) -->
<g id="node2" class="node">
<title>[root] module.aws&#45;ec2.aws_key_pair.key_pair (expand)</title>
<polygon fill="none" stroke="black" points="1621.7,-252 1328.7,-252 1328.7,-216 1621.7,-216 1621.7,-252"/>
<text text-anchor="middle" x="1475.2" y="-230.3" font-family="Times,serif" font-size="14.00">module.aws&#45;ec2.aws_key_pair.key_pair</text>
</g>
<!-- [root] module.aws&#45;ec2.aws_instance.ec2_instance (expand)&#45;&gt;[root] module.aws&#45;ec2.aws_key_pair.key_pair (expand) -->
<g id="edge8" class="edge">
<title>[root] module.aws&#45;ec2.aws_instance.ec2_instance (expand)&#45;&gt;[root] module.aws&#45;ec2.aws_key_pair.key_pair (expand)</title>
<path fill="none" stroke="black" d="M1682.52,-287.97C1643.07,-277.89 1592.95,-265.08 1551.87,-254.59"/>
<polygon fill="black" stroke="black" points="1552.73,-251.2 1542.18,-252.11 1551,-257.98 1552.73,-251.2"/>
</g>
<!-- [root] module.aws&#45;ec2.aws_security_group.sg_allow_myip (expand) -->
<g id="node3" class="node">
<title>[root] module.aws&#45;ec2.aws_security_group.sg_allow_myip (expand)</title>
<polygon fill="none" stroke="black" points="2656.7,-252 2273.7,-252 2273.7,-216 2656.7,-216 2656.7,-252"/>
<text text-anchor="middle" x="2465.2" y="-230.3" font-family="Times,serif" font-size="14.00">module.aws&#45;ec2.aws_security_group.sg_allow_myip</text>
</g>
<!-- [root] module.aws&#45;ec2.aws_instance.ec2_instance (expand)&#45;&gt;[root] module.aws&#45;ec2.aws_security_group.sg_allow_myip (expand) -->
<g id="edge9" class="edge">
<title>[root] module.aws&#45;ec2.aws_instance.ec2_instance (expand)&#45;&gt;[root] module.aws&#45;ec2.aws_security_group.sg_allow_myip (expand)</title>
<path fill="none" stroke="black" d="M1912.57,-289.03C2022.34,-278.3 2167.2,-264.13 2281.06,-253"/>
<polygon fill="black" stroke="black" points="2281.67,-256.46 2291.29,-252 2280.99,-249.49 2281.67,-256.46"/>
</g>
<!-- [root] module.aws&#45;ec2.data.aws_ami.ami_ubuntu (expand) -->
<g id="node4" class="node">
<title>[root] module.aws&#45;ec2.data.aws_ami.ami_ubuntu (expand)</title>
<polygon fill="none" stroke="black" points="1621.2,-108 1301.2,-108 1301.2,-72 1621.2,-72 1621.2,-108"/>
<text text-anchor="middle" x="1461.2" y="-86.3" font-family="Times,serif" font-size="14.00">module.aws&#45;ec2.data.aws_ami.ami_ubuntu</text>
</g>
<!-- [root] module.aws&#45;ec2.aws_instance.ec2_instance (expand)&#45;&gt;[root] module.aws&#45;ec2.data.aws_ami.ami_ubuntu (expand) -->
<g id="edge10" class="edge">
<title>[root] module.aws&#45;ec2.aws_instance.ec2_instance (expand)&#45;&gt;[root] module.aws&#45;ec2.data.aws_ami.ami_ubuntu (expand)</title>
<path fill="none" stroke="black" d="M1726.64,-287.86C1702.94,-269.87 1664.54,-240.83 1631.2,-216 1583.12,-180.2 1527.05,-139.09 1492.85,-114.09"/>
<polygon fill="black" stroke="black" points="1494.78,-111.17 1484.64,-108.1 1490.65,-116.82 1494.78,-111.17"/>
</g>
<!-- [root] module.aws&#45;ec2.random_shuffle.subnets (expand) -->
<g id="node8" class="node">
<title>[root] module.aws&#45;ec2.random_shuffle.subnets (expand)</title>
<polygon fill="none" stroke="black" points="1059.7,-252 754.7,-252 754.7,-216 1059.7,-216 1059.7,-252"/>
<text text-anchor="middle" x="907.2" y="-230.3" font-family="Times,serif" font-size="14.00">module.aws&#45;ec2.random_shuffle.subnets</text>
</g>
<!-- [root] module.aws&#45;ec2.aws_instance.ec2_instance (expand)&#45;&gt;[root] module.aws&#45;ec2.random_shuffle.subnets (expand) -->
<g id="edge12" class="edge">
<title>[root] module.aws&#45;ec2.aws_instance.ec2_instance (expand)&#45;&gt;[root] module.aws&#45;ec2.random_shuffle.subnets (expand)</title>
<path fill="none" stroke="black" d="M1585.85,-291.42C1437.07,-279.05 1218.54,-260.88 1069.94,-248.53"/>
<polygon fill="black" stroke="black" points="1070.07,-245.03 1059.81,-247.69 1069.49,-252 1070.07,-245.03"/>
</g>
<!-- [root] module.aws&#45;ec2.local.ec2_hostname (expand) -->
<g id="node22" class="node">
<title>[root] module.aws&#45;ec2.local.ec2_hostname (expand)</title>
<ellipse fill="none" stroke="black" cx="1966.2" cy="-162" rx="250.46" ry="18"/>
<text text-anchor="middle" x="1966.2" y="-158.3" font-family="Times,serif" font-size="14.00">[root] module.aws&#45;ec2.local.ec2_hostname (expand)</text>
</g>
<!-- [root] module.aws&#45;ec2.aws_instance.ec2_instance (expand)&#45;&gt;[root] module.aws&#45;ec2.local.ec2_hostname (expand) -->
<g id="edge11" class="edge">
<title>[root] module.aws&#45;ec2.aws_instance.ec2_instance (expand)&#45;&gt;[root] module.aws&#45;ec2.local.ec2_hostname (expand)</title>
<path fill="none" stroke="black" d="M1747.92,-287.86C1747.42,-267.94 1749.81,-235.36 1768.2,-216 1781.87,-201.61 1821.22,-189.7 1861.28,-180.84"/>
<polygon fill="black" stroke="black" points="1862.15,-184.23 1871.19,-178.71 1860.68,-177.39 1862.15,-184.23"/>
</g>
<!-- [root] module.aws&#45;ec2.var.ec2_disk_size (expand) -->
<g id="node23" class="node">
<title>[root] module.aws&#45;ec2.var.ec2_disk_size (expand)</title>
<ellipse fill="none" stroke="black" cx="2016.2" cy="-234" rx="239.36" ry="18"/>
<text text-anchor="middle" x="2016.2" y="-230.3" font-family="Times,serif" font-size="14.00">[root] module.aws&#45;ec2.var.ec2_disk_size (expand)</text>
</g>
<!-- [root] module.aws&#45;ec2.aws_instance.ec2_instance (expand)&#45;&gt;[root] module.aws&#45;ec2.var.ec2_disk_size (expand) -->
<g id="edge13" class="edge">
<title>[root] module.aws&#45;ec2.aws_instance.ec2_instance (expand)&#45;&gt;[root] module.aws&#45;ec2.var.ec2_disk_size (expand)</title>
<path fill="none" stroke="black" d="M1814.17,-287.97C1853.39,-277.68 1903.43,-264.57 1943.89,-253.96"/>
<polygon fill="black" stroke="black" points="1944.91,-257.31 1953.7,-251.39 1943.14,-250.54 1944.91,-257.31"/>
</g>
<!-- [root] module.aws&#45;ec2.var.instance_type (expand) -->
<g id="node24" class="node">
<title>[root] module.aws&#45;ec2.var.instance_type (expand)</title>
<ellipse fill="none" stroke="black" cx="2993.2" cy="-234" rx="241.26" ry="18"/>
<text text-anchor="middle" x="2993.2" y="-230.3" font-family="Times,serif" font-size="14.00">[root] module.aws&#45;ec2.var.instance_type (expand)</text>
</g>
<!-- [root] module.aws&#45;ec2.aws_instance.ec2_instance (expand)&#45;&gt;[root] module.aws&#45;ec2.var.instance_type (expand) -->
<g id="edge14" class="edge">
<title>[root] module.aws&#45;ec2.aws_instance.ec2_instance (expand)&#45;&gt;[root] module.aws&#45;ec2.var.instance_type (expand)</title>
<path fill="none" stroke="black" d="M1912.47,-295.81C2140.27,-282.99 2552.92,-259.77 2797.1,-246.03"/>
<polygon fill="black" stroke="black" points="2797.37,-249.53 2807.15,-245.47 2796.97,-242.54 2797.37,-249.53"/>
</g>
<!-- [root] module.aws&#45;ec2.tls_private_key.private_key (expand) -->
<g id="node9" class="node">
<title>[root] module.aws&#45;ec2.tls_private_key.private_key (expand)</title>
<polygon fill="none" stroke="black" points="1436.7,-180 1109.7,-180 1109.7,-144 1436.7,-144 1436.7,-180"/>
<text text-anchor="middle" x="1273.2" y="-158.3" font-family="Times,serif" font-size="14.00">module.aws&#45;ec2.tls_private_key.private_key</text>
</g>
<!-- [root] module.aws&#45;ec2.aws_key_pair.key_pair (expand)&#45;&gt;[root] module.aws&#45;ec2.tls_private_key.private_key (expand) -->
<g id="edge15" class="edge">
<title>[root] module.aws&#45;ec2.aws_key_pair.key_pair (expand)&#45;&gt;[root] module.aws&#45;ec2.tls_private_key.private_key (expand)</title>
<path fill="none" stroke="black" d="M1426.04,-215.97C1397.7,-206.14 1361.87,-193.73 1332.04,-183.39"/>
<polygon fill="black" stroke="black" points="1333.17,-180.08 1322.58,-180.11 1330.88,-186.69 1333.17,-180.08"/>
</g>
<!-- [root] provider[&quot;registry.terraform.io/hashicorp/aws&quot;] -->
<g id="node12" class="node">
<title>[root] provider[&quot;registry.terraform.io/hashicorp/aws&quot;]</title>
<polygon fill="none" stroke="black" points="1110.2,-36 784.94,-18 1110.2,0 1435.46,-18 1110.2,-36"/>
<text text-anchor="middle" x="1110.2" y="-14.3" font-family="Times,serif" font-size="14.00">provider[&quot;registry.terraform.io/hashicorp/aws&quot;]</text>
</g>
<!-- [root] module.aws&#45;ec2.aws_key_pair.key_pair (expand)&#45;&gt;[root] provider[&quot;registry.terraform.io/hashicorp/aws&quot;] -->
<g id="edge16" class="edge">
<title>[root] module.aws&#45;ec2.aws_key_pair.key_pair (expand)&#45;&gt;[root] provider[&quot;registry.terraform.io/hashicorp/aws&quot;]</title>
<path fill="none" stroke="black" d="M1474.76,-215.74C1473.21,-195.07 1467.22,-161.1 1445.2,-144 1360.89,-78.52 1038.8,-186.26 966.2,-108 936.25,-75.71 990.69,-50.73 1041,-35.56"/>
<polygon fill="black" stroke="black" points="1042.03,-38.91 1050.65,-32.76 1040.07,-32.19 1042.03,-38.91"/>
</g>
<!-- [root] module.aws&#45;ec2.data.aws_vpc.main (expand) -->
<g id="node6" class="node">
<title>[root] module.aws&#45;ec2.data.aws_vpc.main (expand)</title>
<polygon fill="none" stroke="black" points="1245.2,-108 975.2,-108 975.2,-72 1245.2,-72 1245.2,-108"/>
<text text-anchor="middle" x="1110.2" y="-86.3" font-family="Times,serif" font-size="14.00">module.aws&#45;ec2.data.aws_vpc.main</text>
</g>
<!-- [root] module.aws&#45;ec2.aws_security_group.sg_allow_myip (expand)&#45;&gt;[root] module.aws&#45;ec2.data.aws_vpc.main (expand) -->
<g id="edge17" class="edge">
<title>[root] module.aws&#45;ec2.aws_security_group.sg_allow_myip (expand)&#45;&gt;[root] module.aws&#45;ec2.data.aws_vpc.main (expand)</title>
<path fill="none" stroke="black" d="M2273.44,-216.7C2270.34,-216.46 2267.25,-216.23 2264.2,-216 2016.81,-197.55 1953.77,-207.29 1707.2,-180 1604.8,-168.67 1580.08,-159.34 1478.2,-144 1399.72,-132.18 1311.74,-119.49 1241.48,-109.49"/>
<polygon fill="black" stroke="black" points="1241.64,-105.98 1231.25,-108.03 1240.66,-112.91 1241.64,-105.98"/>
</g>
<!-- [root] module.aws&#45;ec2.data.http.myip (expand) -->
<g id="node7" class="node">
<title>[root] module.aws&#45;ec2.data.http.myip (expand)</title>
<polygon fill="none" stroke="black" points="2944.7,-180 2703.7,-180 2703.7,-144 2944.7,-144 2944.7,-180"/>
<text text-anchor="middle" x="2824.2" y="-158.3" font-family="Times,serif" font-size="14.00">module.aws&#45;ec2.data.http.myip</text>
</g>
<!-- [root] module.aws&#45;ec2.aws_security_group.sg_allow_myip (expand)&#45;&gt;[root] module.aws&#45;ec2.data.http.myip (expand) -->
<g id="edge18" class="edge">
<title>[root] module.aws&#45;ec2.aws_security_group.sg_allow_myip (expand)&#45;&gt;[root] module.aws&#45;ec2.data.http.myip (expand)</title>
<path fill="none" stroke="black" d="M2552.56,-215.97C2605.22,-205.7 2672.39,-192.6 2726.76,-182"/>
<polygon fill="black" stroke="black" points="2727.61,-185.4 2736.76,-180.05 2726.27,-178.53 2727.61,-185.4"/>
</g>
<!-- [root] module.aws&#45;ec2.data.aws_ami.ami_ubuntu (expand)&#45;&gt;[root] provider[&quot;registry.terraform.io/hashicorp/aws&quot;] -->
<g id="edge20" class="edge">
<title>[root] module.aws&#45;ec2.data.aws_ami.ami_ubuntu (expand)&#45;&gt;[root] provider[&quot;registry.terraform.io/hashicorp/aws&quot;]</title>
<path fill="none" stroke="black" d="M1375.78,-71.97C1318.07,-60.46 1242.52,-45.39 1186.76,-34.27"/>
<polygon fill="black" stroke="black" points="1187.43,-30.83 1176.94,-32.31 1186.06,-37.7 1187.43,-30.83"/>
</g>
<!-- [root] module.aws&#45;ec2 (expand) -->
<g id="node25" class="node">
<title>[root] module.aws&#45;ec2 (expand)</title>
<ellipse fill="none" stroke="black" cx="2442.2" cy="-18" rx="157.07" ry="18"/>
<text text-anchor="middle" x="2442.2" y="-14.3" font-family="Times,serif" font-size="14.00">[root] module.aws&#45;ec2 (expand)</text>
</g>
<!-- [root] module.aws&#45;ec2.data.aws_ami.ami_ubuntu (expand)&#45;&gt;[root] module.aws&#45;ec2 (expand) -->
<g id="edge19" class="edge">
<title>[root] module.aws&#45;ec2.data.aws_ami.ami_ubuntu (expand)&#45;&gt;[root] module.aws&#45;ec2 (expand)</title>
<path fill="none" stroke="black" d="M1621.3,-72.75C1624.29,-72.49 1627.26,-72.24 1630.2,-72 1861.53,-52.82 2130.41,-36.43 2293.35,-27.15"/>
<polygon fill="black" stroke="black" points="2293.66,-30.63 2303.44,-26.57 2293.26,-23.65 2293.66,-30.63"/>
</g>
<!-- [root] module.aws&#45;ec2.data.aws_subnet_ids.ec2_subnets (expand) -->
<g id="node5" class="node">
<title>[root] module.aws&#45;ec2.data.aws_subnet_ids.ec2_subnets (expand)</title>
<polygon fill="none" stroke="black" points="1092.2,-180 718.2,-180 718.2,-144 1092.2,-144 1092.2,-180"/>
<text text-anchor="middle" x="905.2" y="-158.3" font-family="Times,serif" font-size="14.00">module.aws&#45;ec2.data.aws_subnet_ids.ec2_subnets</text>
</g>
<!-- [root] module.aws&#45;ec2.data.aws_subnet_ids.ec2_subnets (expand)&#45;&gt;[root] module.aws&#45;ec2.data.aws_vpc.main (expand) -->
<g id="edge21" class="edge">
<title>[root] module.aws&#45;ec2.data.aws_subnet_ids.ec2_subnets (expand)&#45;&gt;[root] module.aws&#45;ec2.data.aws_vpc.main (expand)</title>
<path fill="none" stroke="black" d="M955.09,-143.97C983.85,-134.14 1020.21,-121.73 1050.49,-111.39"/>
<polygon fill="black" stroke="black" points="1051.76,-114.65 1060.09,-108.11 1049.49,-108.03 1051.76,-114.65"/>
</g>
<!-- [root] module.aws&#45;ec2.data.aws_vpc.main (expand)&#45;&gt;[root] provider[&quot;registry.terraform.io/hashicorp/aws&quot;] -->
<g id="edge23" class="edge">
<title>[root] module.aws&#45;ec2.data.aws_vpc.main (expand)&#45;&gt;[root] provider[&quot;registry.terraform.io/hashicorp/aws&quot;]</title>
<path fill="none" stroke="black" d="M1110.2,-71.7C1110.2,-63.98 1110.2,-54.71 1110.2,-46.11"/>
<polygon fill="black" stroke="black" points="1113.7,-46.1 1110.2,-36.1 1106.7,-46.1 1113.7,-46.1"/>
</g>
<!-- [root] module.aws&#45;ec2.data.aws_vpc.main (expand)&#45;&gt;[root] module.aws&#45;ec2 (expand) -->
<g id="edge22" class="edge">
<title>[root] module.aws&#45;ec2.data.aws_vpc.main (expand)&#45;&gt;[root] module.aws&#45;ec2 (expand)</title>
<path fill="none" stroke="black" d="M1245.38,-73.17C1250.04,-72.75 1254.66,-72.36 1259.2,-72 1623.2,-43.12 2051.55,-28.8 2279.75,-22.74"/>
<polygon fill="black" stroke="black" points="2279.89,-26.24 2289.79,-22.48 2279.7,-19.24 2279.89,-26.24"/>
</g>
<!-- [root] provider[&quot;registry.terraform.io/hashicorp/http&quot;] -->
<g id="node13" class="node">
<title>[root] provider[&quot;registry.terraform.io/hashicorp/http&quot;]</title>
<polygon fill="none" stroke="black" points="2946.2,-108 2618.76,-90 2946.2,-72 3273.64,-90 2946.2,-108"/>
<text text-anchor="middle" x="2946.2" y="-86.3" font-family="Times,serif" font-size="14.00">provider[&quot;registry.terraform.io/hashicorp/http&quot;]</text>
</g>
<!-- [root] module.aws&#45;ec2.data.http.myip (expand)&#45;&gt;[root] provider[&quot;registry.terraform.io/hashicorp/http&quot;] -->
<g id="edge25" class="edge">
<title>[root] module.aws&#45;ec2.data.http.myip (expand)&#45;&gt;[root] provider[&quot;registry.terraform.io/hashicorp/http&quot;]</title>
<path fill="none" stroke="black" d="M2854.04,-143.88C2870.98,-134.16 2892.31,-121.92 2910.17,-111.67"/>
<polygon fill="black" stroke="black" points="2912.23,-114.53 2919.16,-106.51 2908.74,-108.46 2912.23,-114.53"/>
</g>
<!-- [root] module.aws&#45;ec2.data.http.myip (expand)&#45;&gt;[root] module.aws&#45;ec2 (expand) -->
<g id="edge24" class="edge">
<title>[root] module.aws&#45;ec2.data.http.myip (expand)&#45;&gt;[root] module.aws&#45;ec2 (expand)</title>
<path fill="none" stroke="black" d="M2714.93,-143.95C2680.25,-135.95 2642.53,-124.42 2610.2,-108 2587.98,-96.71 2588.46,-85.01 2567.2,-72 2546.01,-59.03 2521.07,-47.76 2499.07,-38.98"/>
<polygon fill="black" stroke="black" points="2500.11,-35.63 2489.52,-35.25 2497.56,-42.15 2500.11,-35.63"/>
</g>
<!-- [root] module.aws&#45;ec2.random_shuffle.subnets (expand)&#45;&gt;[root] module.aws&#45;ec2.data.aws_subnet_ids.ec2_subnets (expand) -->
<g id="edge30" class="edge">
<title>[root] module.aws&#45;ec2.random_shuffle.subnets (expand)&#45;&gt;[root] module.aws&#45;ec2.data.aws_subnet_ids.ec2_subnets (expand)</title>
<path fill="none" stroke="black" d="M906.7,-215.7C906.48,-207.98 906.22,-198.71 905.97,-190.11"/>
<polygon fill="black" stroke="black" points="909.47,-190 905.69,-180.1 902.47,-190.2 909.47,-190"/>
</g>
<!-- [root] provider[&quot;registry.terraform.io/hashicorp/random&quot;] -->
<g id="node14" class="node">
<title>[root] provider[&quot;registry.terraform.io/hashicorp/random&quot;]</title>
<polygon fill="none" stroke="black" points="350.2,-180 -0.2,-162 350.2,-144 700.6,-162 350.2,-180"/>
<text text-anchor="middle" x="350.2" y="-158.3" font-family="Times,serif" font-size="14.00">provider[&quot;registry.terraform.io/hashicorp/random&quot;]</text>
</g>
<!-- [root] module.aws&#45;ec2.random_shuffle.subnets (expand)&#45;&gt;[root] provider[&quot;registry.terraform.io/hashicorp/random&quot;] -->
<g id="edge31" class="edge">
<title>[root] module.aws&#45;ec2.random_shuffle.subnets (expand)&#45;&gt;[root] provider[&quot;registry.terraform.io/hashicorp/random&quot;]</title>
<path fill="none" stroke="black" d="M771.65,-215.97C674.76,-203.79 546.19,-187.63 456.64,-176.38"/>
<polygon fill="black" stroke="black" points="456.82,-172.87 446.46,-175.1 455.95,-179.82 456.82,-172.87"/>
</g>
<!-- [root] provider[&quot;registry.terraform.io/hashicorp/tls&quot;] -->
<g id="node15" class="node">
<title>[root] provider[&quot;registry.terraform.io/hashicorp/tls&quot;]</title>
<polygon fill="none" stroke="black" points="603.2,-108 286.82,-90 603.2,-72 919.58,-90 603.2,-108"/>
<text text-anchor="middle" x="603.2" y="-86.3" font-family="Times,serif" font-size="14.00">provider[&quot;registry.terraform.io/hashicorp/tls&quot;]</text>
</g>
<!-- [root] module.aws&#45;ec2.tls_private_key.private_key (expand)&#45;&gt;[root] provider[&quot;registry.terraform.io/hashicorp/tls&quot;] -->
<g id="edge33" class="edge">
<title>[root] module.aws&#45;ec2.tls_private_key.private_key (expand)&#45;&gt;[root] provider[&quot;registry.terraform.io/hashicorp/tls&quot;]</title>
<path fill="none" stroke="black" d="M1110.16,-143.97C989.02,-131.31 826.72,-114.35 718.75,-103.07"/>
<polygon fill="black" stroke="black" points="719.1,-99.59 708.79,-102.03 718.38,-106.55 719.1,-99.59"/>
</g>
<!-- [root] module.aws&#45;ec2.tls_private_key.private_key (expand)&#45;&gt;[root] module.aws&#45;ec2 (expand) -->
<g id="edge32" class="edge">
<title>[root] module.aws&#45;ec2.tls_private_key.private_key (expand)&#45;&gt;[root] module.aws&#45;ec2 (expand)</title>
<path fill="none" stroke="black" d="M1271.28,-143.86C1270.04,-123.31 1271.59,-89.47 1292.2,-72 1329.08,-40.73 1967.57,-26.45 2276.87,-21.34"/>
<polygon fill="black" stroke="black" points="2277.34,-24.83 2287.28,-21.17 2277.23,-17.83 2277.34,-24.83"/>
</g>
<!-- [root] output.private_key -->
<g id="node10" class="node">
<title>[root] output.private_key</title>
<polygon fill="none" stroke="black" points="2191.7,-468 2046.7,-468 2046.7,-432 2197.7,-432 2197.7,-462 2191.7,-468"/>
<polyline fill="none" stroke="black" points="2191.7,-468 2191.7,-462 "/>
<polyline fill="none" stroke="black" points="2197.7,-462 2191.7,-462 "/>
<text text-anchor="middle" x="2122.2" y="-446.3" font-family="Times,serif" font-size="14.00">output.private_key</text>
</g>
<!-- [root] module.aws&#45;ec2.output.private_key (expand) -->
<g id="node18" class="node">
<title>[root] module.aws&#45;ec2.output.private_key (expand)</title>
<ellipse fill="none" stroke="black" cx="2013.2" cy="-378" rx="246.96" ry="18"/>
<text text-anchor="middle" x="2013.2" y="-374.3" font-family="Times,serif" font-size="14.00">[root] module.aws&#45;ec2.output.private_key (expand)</text>
</g>
<!-- [root] output.private_key&#45;&gt;[root] module.aws&#45;ec2.output.private_key (expand) -->
<g id="edge40" class="edge">
<title>[root] output.private_key&#45;&gt;[root] module.aws&#45;ec2.output.private_key (expand)</title>
<path fill="none" stroke="black" d="M2095.53,-431.88C2081.31,-422.74 2063.63,-411.38 2048.3,-401.54"/>
<polygon fill="black" stroke="black" points="2049.89,-398.41 2039.59,-395.95 2046.11,-404.3 2049.89,-398.41"/>
</g>
<!-- [root] output.public_ip -->
<g id="node11" class="node">
<title>[root] output.public_ip</title>
<polygon fill="none" stroke="black" points="2342.2,-468 2216.2,-468 2216.2,-432 2348.2,-432 2348.2,-462 2342.2,-468"/>
<polyline fill="none" stroke="black" points="2342.2,-468 2342.2,-462 "/>
<polyline fill="none" stroke="black" points="2348.2,-462 2342.2,-462 "/>
<text text-anchor="middle" x="2282.2" y="-446.3" font-family="Times,serif" font-size="14.00">output.public_ip</text>
</g>
<!-- [root] module.aws&#45;ec2.output.public_ip (expand) -->
<g id="node19" class="node">
<title>[root] module.aws&#45;ec2.output.public_ip (expand)</title>
<ellipse fill="none" stroke="black" cx="2513.2" cy="-378" rx="235.06" ry="18"/>
<text text-anchor="middle" x="2513.2" y="-374.3" font-family="Times,serif" font-size="14.00">[root] module.aws&#45;ec2.output.public_ip (expand)</text>
</g>
<!-- [root] output.public_ip&#45;&gt;[root] module.aws&#45;ec2.output.public_ip (expand) -->
<g id="edge41" class="edge">
<title>[root] output.public_ip&#45;&gt;[root] module.aws&#45;ec2.output.public_ip (expand)</title>
<path fill="none" stroke="black" d="M2338.41,-431.97C2371.6,-421.91 2413.74,-409.14 2448.32,-398.66"/>
<polygon fill="black" stroke="black" points="2449.78,-401.88 2458.33,-395.63 2447.75,-395.18 2449.78,-401.88"/>
</g>
<!-- [root] meta.count&#45;boundary (EachMode fixup) -->
<g id="node16" class="node">
<title>[root] meta.count&#45;boundary (EachMode fixup)</title>
<ellipse fill="none" stroke="black" cx="2202.2" cy="-522" rx="222.86" ry="18"/>
<text text-anchor="middle" x="2202.2" y="-518.3" font-family="Times,serif" font-size="14.00">[root] meta.count&#45;boundary (EachMode fixup)</text>
</g>
<!-- [root] meta.count&#45;boundary (EachMode fixup)&#45;&gt;[root] output.private_key -->
<g id="edge2" class="edge">
<title>[root] meta.count&#45;boundary (EachMode fixup)&#45;&gt;[root] output.private_key</title>
<path fill="none" stroke="black" d="M2182.83,-504.05C2172.79,-495.26 2160.35,-484.38 2149.36,-474.76"/>
<polygon fill="black" stroke="black" points="2151.49,-471.98 2141.66,-468.03 2146.88,-477.25 2151.49,-471.98"/>
</g>
<!-- [root] meta.count&#45;boundary (EachMode fixup)&#45;&gt;[root] output.public_ip -->
<g id="edge3" class="edge">
<title>[root] meta.count&#45;boundary (EachMode fixup)&#45;&gt;[root] output.public_ip</title>
<path fill="none" stroke="black" d="M2221.56,-504.05C2231.61,-495.26 2244.05,-484.38 2255.04,-474.76"/>
<polygon fill="black" stroke="black" points="2257.51,-477.25 2262.73,-468.03 2252.9,-471.98 2257.51,-477.25"/>
</g>
<!-- [root] module.aws&#45;ec2 (close) -->
<g id="node17" class="node">
<title>[root] module.aws&#45;ec2 (close)</title>
<ellipse fill="none" stroke="black" cx="2513.2" cy="-450" rx="146.77" ry="18"/>
<text text-anchor="middle" x="2513.2" y="-446.3" font-family="Times,serif" font-size="14.00">[root] module.aws&#45;ec2 (close)</text>
</g>
<!-- [root] meta.count&#45;boundary (EachMode fixup)&#45;&gt;[root] module.aws&#45;ec2 (close) -->
<g id="edge1" class="edge">
<title>[root] meta.count&#45;boundary (EachMode fixup)&#45;&gt;[root] module.aws&#45;ec2 (close)</title>
<path fill="none" stroke="black" d="M2273.55,-504.94C2322.12,-494.01 2386.36,-479.55 2436.11,-468.35"/>
<polygon fill="black" stroke="black" points="2437.19,-471.7 2446.17,-466.09 2435.65,-464.87 2437.19,-471.7"/>
</g>
<!-- [root] module.aws&#45;ec2 (close)&#45;&gt;[root] module.aws&#45;ec2.output.private_key (expand) -->
<g id="edge4" class="edge">
<title>[root] module.aws&#45;ec2 (close)&#45;&gt;[root] module.aws&#45;ec2.output.private_key (expand)</title>
<path fill="none" stroke="black" d="M2420.32,-436C2338.88,-424.6 2220.02,-407.96 2131.73,-395.59"/>
<polygon fill="black" stroke="black" points="2132.05,-392.11 2121.67,-394.19 2131.08,-399.04 2132.05,-392.11"/>
</g>
<!-- [root] module.aws&#45;ec2 (close)&#45;&gt;[root] module.aws&#45;ec2.output.public_ip (expand) -->
<g id="edge5" class="edge">
<title>[root] module.aws&#45;ec2 (close)&#45;&gt;[root] module.aws&#45;ec2.output.public_ip (expand)</title>
<path fill="none" stroke="black" d="M2513.2,-431.7C2513.2,-423.98 2513.2,-414.71 2513.2,-406.11"/>
<polygon fill="black" stroke="black" points="2516.7,-406.1 2513.2,-396.1 2509.7,-406.1 2516.7,-406.1"/>
</g>
<!-- [root] module.aws&#45;ec2.var.aws_region (expand) -->
<g id="node20" class="node">
<title>[root] module.aws&#45;ec2.var.aws_region (expand)</title>
<ellipse fill="none" stroke="black" cx="2948.2" cy="-306" rx="229.36" ry="18"/>
<text text-anchor="middle" x="2948.2" y="-302.3" font-family="Times,serif" font-size="14.00">[root] module.aws&#45;ec2.var.aws_region (expand)</text>
</g>
<!-- [root] module.aws&#45;ec2 (close)&#45;&gt;[root] module.aws&#45;ec2.var.aws_region (expand) -->
<g id="edge6" class="edge">
<title>[root] module.aws&#45;ec2 (close)&#45;&gt;[root] module.aws&#45;ec2.var.aws_region (expand)</title>
<path fill="none" stroke="black" d="M2598.3,-435.32C2645.76,-426.5 2705.54,-413.4 2757.2,-396 2811.21,-377.8 2870.22,-348.79 2908.14,-328.87"/>
<polygon fill="black" stroke="black" points="2910.12,-331.78 2917.31,-324.01 2906.84,-325.6 2910.12,-331.78"/>
</g>
<!-- [root] module.aws&#45;ec2.var.instance_count (expand) -->
<g id="node21" class="node">
<title>[root] module.aws&#45;ec2.var.instance_count (expand)</title>
<ellipse fill="none" stroke="black" cx="3266.2" cy="-378" rx="246.16" ry="18"/>
<text text-anchor="middle" x="3266.2" y="-374.3" font-family="Times,serif" font-size="14.00">[root] module.aws&#45;ec2.var.instance_count (expand)</text>
</g>
<!-- [root] module.aws&#45;ec2 (close)&#45;&gt;[root] module.aws&#45;ec2.var.instance_count (expand) -->
<g id="edge7" class="edge">
<title>[root] module.aws&#45;ec2 (close)&#45;&gt;[root] module.aws&#45;ec2.var.instance_count (expand)</title>
<path fill="none" stroke="black" d="M2626.34,-438.48C2755.04,-426.52 2966,-406.91 3110.25,-393.5"/>
<polygon fill="black" stroke="black" points="3110.89,-396.95 3120.52,-392.54 3110.24,-389.98 3110.89,-396.95"/>
</g>
<!-- [root] module.aws&#45;ec2.output.private_key (expand)&#45;&gt;[root] module.aws&#45;ec2.tls_private_key.private_key (expand) -->
<g id="edge28" class="edge">
<title>[root] module.aws&#45;ec2.output.private_key (expand)&#45;&gt;[root] module.aws&#45;ec2.tls_private_key.private_key (expand)</title>
<path fill="none" stroke="black" d="M1842.16,-365.01C1663.2,-349.24 1397.55,-315.74 1319.2,-252 1299.67,-236.11 1287.52,-209.73 1280.64,-189.81"/>
<polygon fill="black" stroke="black" points="1283.91,-188.52 1277.52,-180.07 1277.24,-190.66 1283.91,-188.52"/>
</g>
<!-- [root] module.aws&#45;ec2.output.public_ip (expand)&#45;&gt;[root] module.aws&#45;ec2.aws_instance.ec2_instance (expand) -->
<g id="edge29" class="edge">
<title>[root] module.aws&#45;ec2.output.public_ip (expand)&#45;&gt;[root] module.aws&#45;ec2.aws_instance.ec2_instance (expand)</title>
<path fill="none" stroke="black" d="M2368.6,-363.75C2241.78,-352.13 2057.11,-335.21 1922.43,-322.87"/>
<polygon fill="black" stroke="black" points="1922.69,-319.38 1912.41,-321.95 1922.05,-326.35 1922.69,-319.38"/>
</g>
<!-- [root] module.aws&#45;ec2.var.aws_region (expand)&#45;&gt;[root] module.aws&#45;ec2 (expand) -->
<g id="edge34" class="edge">
<title>[root] module.aws&#45;ec2.var.aws_region (expand)&#45;&gt;[root] module.aws&#45;ec2 (expand)</title>
<path fill="none" stroke="black" d="M3092.83,-292C3155.21,-283.81 3219.31,-271.08 3243.2,-252 3309.2,-199.29 3362.07,-133.53 3304.2,-72 3280.61,-46.91 2846.85,-30.54 2603.84,-23.29"/>
<polygon fill="black" stroke="black" points="2603.59,-19.78 2593.49,-22.98 2603.38,-26.78 2603.59,-19.78"/>
</g>
<!-- [root] module.aws&#45;ec2.var.instance_count (expand)&#45;&gt;[root] module.aws&#45;ec2 (expand) -->
<g id="edge37" class="edge">
<title>[root] module.aws&#45;ec2.var.instance_count (expand)&#45;&gt;[root] module.aws&#45;ec2 (expand)</title>
<path fill="none" stroke="black" d="M3292.22,-360C3325.03,-336.27 3377.2,-289.92 3377.2,-235 3377.2,-235 3377.2,-235 3377.2,-161 3377.2,-115.85 3366.37,-96.12 3328.2,-72 3269.09,-34.64 2848.36,-23.61 2608.55,-20.36"/>
<polygon fill="black" stroke="black" points="2608.37,-16.86 2598.32,-20.23 2608.28,-23.86 2608.37,-16.86"/>
</g>
<!-- [root] module.aws&#45;ec2.var.env (expand) -->
<g id="node26" class="node">
<title>[root] module.aws&#45;ec2.var.env (expand)</title>
<ellipse fill="none" stroke="black" cx="2331.2" cy="-90" rx="193.87" ry="18"/>
<text text-anchor="middle" x="2331.2" y="-86.3" font-family="Times,serif" font-size="14.00">[root] module.aws&#45;ec2.var.env (expand)</text>
</g>
<!-- [root] module.aws&#45;ec2.local.ec2_hostname (expand)&#45;&gt;[root] module.aws&#45;ec2.var.env (expand) -->
<g id="edge26" class="edge">
<title>[root] module.aws&#45;ec2.local.ec2_hostname (expand)&#45;&gt;[root] module.aws&#45;ec2.var.env (expand)</title>
<path fill="none" stroke="black" d="M2049.94,-144.94C2107.04,-133.99 2182.6,-119.5 2241.02,-108.29"/>
<polygon fill="black" stroke="black" points="2241.82,-111.7 2250.98,-106.38 2240.5,-104.83 2241.82,-111.7"/>
</g>
<!-- [root] module.aws&#45;ec2.var.service_name (expand) -->
<g id="node27" class="node">
<title>[root] module.aws&#45;ec2.var.service_name (expand)</title>
<ellipse fill="none" stroke="black" cx="1879.2" cy="-90" rx="239.66" ry="18"/>
<text text-anchor="middle" x="1879.2" y="-86.3" font-family="Times,serif" font-size="14.00">[root] module.aws&#45;ec2.var.service_name (expand)</text>
</g>
<!-- [root] module.aws&#45;ec2.local.ec2_hostname (expand)&#45;&gt;[root] module.aws&#45;ec2.var.service_name (expand) -->
<g id="edge27" class="edge">
<title>[root] module.aws&#45;ec2.local.ec2_hostname (expand)&#45;&gt;[root] module.aws&#45;ec2.var.service_name (expand)</title>
<path fill="none" stroke="black" d="M1945.14,-144.05C1934.11,-135.18 1920.42,-124.17 1908.38,-114.48"/>
<polygon fill="black" stroke="black" points="1910.35,-111.57 1900.37,-108.03 1905.96,-117.03 1910.35,-111.57"/>
</g>
<!-- [root] module.aws&#45;ec2.var.ec2_disk_size (expand)&#45;&gt;[root] module.aws&#45;ec2 (expand) -->
<g id="edge35" class="edge">
<title>[root] module.aws&#45;ec2.var.ec2_disk_size (expand)&#45;&gt;[root] module.aws&#45;ec2 (expand)</title>
<path fill="none" stroke="black" d="M2151.57,-219.15C2288.79,-201.98 2487.38,-167.47 2534.2,-108 2544.1,-95.43 2542.21,-85.85 2534.2,-72 2526.33,-58.38 2513.49,-47.96 2499.86,-40.11"/>
<polygon fill="black" stroke="black" points="2501.31,-36.91 2490.84,-35.31 2498.03,-43.1 2501.31,-36.91"/>
</g>
<!-- [root] module.aws&#45;ec2.var.instance_type (expand)&#45;&gt;[root] module.aws&#45;ec2 (expand) -->
<g id="edge38" class="edge">
<title>[root] module.aws&#45;ec2.var.instance_type (expand)&#45;&gt;[root] module.aws&#45;ec2 (expand)</title>
<path fill="none" stroke="black" d="M3080.96,-217.15C3189.31,-194.02 3351.29,-145.59 3282.2,-72 3259.34,-47.65 2840.49,-31.04 2603.07,-23.54"/>
<polygon fill="black" stroke="black" points="2603.06,-20.04 2592.95,-23.22 2602.84,-27.04 2603.06,-20.04"/>
</g>
<!-- [root] module.aws&#45;ec2.var.env (expand)&#45;&gt;[root] module.aws&#45;ec2 (expand) -->
<g id="edge36" class="edge">
<title>[root] module.aws&#45;ec2.var.env (expand)&#45;&gt;[root] module.aws&#45;ec2 (expand)</title>
<path fill="none" stroke="black" d="M2358.07,-72.05C2372.79,-62.77 2391.22,-51.15 2407.07,-41.15"/>
<polygon fill="black" stroke="black" points="2408.98,-44.08 2415.58,-35.79 2405.25,-38.16 2408.98,-44.08"/>
</g>
<!-- [root] module.aws&#45;ec2.var.service_name (expand)&#45;&gt;[root] module.aws&#45;ec2 (expand) -->
<g id="edge39" class="edge">
<title>[root] module.aws&#45;ec2.var.service_name (expand)&#45;&gt;[root] module.aws&#45;ec2 (expand)</title>
<path fill="none" stroke="black" d="M1997.22,-74.33C2095.16,-62.15 2233.51,-44.95 2329.85,-32.97"/>
<polygon fill="black" stroke="black" points="2330.42,-36.42 2339.91,-31.72 2329.56,-29.48 2330.42,-36.42"/>
</g>
<!-- [root] provider[&quot;registry.terraform.io/hashicorp/aws&quot;] (close) -->
<g id="node28" class="node">
<title>[root] provider[&quot;registry.terraform.io/hashicorp/aws&quot;] (close)</title>
<ellipse fill="none" stroke="black" cx="1737.2" cy="-450" rx="291.65" ry="18"/>
<text text-anchor="middle" x="1737.2" y="-446.3" font-family="Times,serif" font-size="14.00">[root] provider[&quot;registry.terraform.io/hashicorp/aws&quot;] (close)</text>
</g>
<!-- [root] provider[&quot;registry.terraform.io/hashicorp/aws&quot;] (close)&#45;&gt;[root] module.aws&#45;ec2.aws_instance.ec2_instance (expand) -->
<g id="edge42" class="edge">
<title>[root] provider[&quot;registry.terraform.io/hashicorp/aws&quot;] (close)&#45;&gt;[root] module.aws&#45;ec2.aws_instance.ec2_instance (expand)</title>
<path fill="none" stroke="black" d="M1738.65,-431.87C1740.69,-407.67 1744.45,-363.21 1746.88,-334.39"/>
<polygon fill="black" stroke="black" points="1750.39,-334.45 1747.75,-324.19 1743.42,-333.86 1750.39,-334.45"/>
</g>
<!-- [root] provider[&quot;registry.terraform.io/hashicorp/http&quot;] (close) -->
<g id="node29" class="node">
<title>[root] provider[&quot;registry.terraform.io/hashicorp/http&quot;] (close)</title>
<ellipse fill="none" stroke="black" cx="3699.2" cy="-306" rx="293.55" ry="18"/>
<text text-anchor="middle" x="3699.2" y="-302.3" font-family="Times,serif" font-size="14.00">[root] provider[&quot;registry.terraform.io/hashicorp/http&quot;] (close)</text>
</g>
<!-- [root] provider[&quot;registry.terraform.io/hashicorp/http&quot;] (close)&#45;&gt;[root] module.aws&#45;ec2.data.http.myip (expand) -->
<g id="edge43" class="edge">
<title>[root] provider[&quot;registry.terraform.io/hashicorp/http&quot;] (close)&#45;&gt;[root] module.aws&#45;ec2.data.http.myip (expand)</title>
<path fill="none" stroke="black" d="M3623.23,-288.56C3532.95,-269.39 3377.59,-237.59 3243.2,-216 3147.02,-200.55 3037.83,-186.86 2955.03,-177.27"/>
<polygon fill="black" stroke="black" points="2955.4,-173.79 2945.06,-176.12 2954.6,-180.74 2955.4,-173.79"/>
</g>
<!-- [root] provider[&quot;registry.terraform.io/hashicorp/random&quot;] (close) -->
<g id="node30" class="node">
<title>[root] provider[&quot;registry.terraform.io/hashicorp/random&quot;] (close)</title>
<ellipse fill="none" stroke="black" cx="921.2" cy="-306" rx="309.25" ry="18"/>
<text text-anchor="middle" x="921.2" y="-302.3" font-family="Times,serif" font-size="14.00">[root] provider[&quot;registry.terraform.io/hashicorp/random&quot;] (close)</text>
</g>
<!-- [root] provider[&quot;registry.terraform.io/hashicorp/random&quot;] (close)&#45;&gt;[root] module.aws&#45;ec2.random_shuffle.subnets (expand) -->
<g id="edge44" class="edge">
<title>[root] provider[&quot;registry.terraform.io/hashicorp/random&quot;] (close)&#45;&gt;[root] module.aws&#45;ec2.random_shuffle.subnets (expand)</title>
<path fill="none" stroke="black" d="M917.74,-287.7C916.2,-279.98 914.34,-270.71 912.62,-262.11"/>
<polygon fill="black" stroke="black" points="916.01,-261.22 910.62,-252.1 909.15,-262.6 916.01,-261.22"/>
</g>
<!-- [root] provider[&quot;registry.terraform.io/hashicorp/tls&quot;] (close) -->
<g id="node31" class="node">
<title>[root] provider[&quot;registry.terraform.io/hashicorp/tls&quot;] (close)</title>
<ellipse fill="none" stroke="black" cx="1417.2" cy="-522" rx="285.95" ry="18"/>
<text text-anchor="middle" x="1417.2" y="-518.3" font-family="Times,serif" font-size="14.00">[root] provider[&quot;registry.terraform.io/hashicorp/tls&quot;] (close)</text>
</g>
<!-- [root] provider[&quot;registry.terraform.io/hashicorp/tls&quot;] (close)&#45;&gt;[root] module.aws&#45;ec2.tls_private_key.private_key (expand) -->
<g id="edge45" class="edge">
<title>[root] provider[&quot;registry.terraform.io/hashicorp/tls&quot;] (close)&#45;&gt;[root] module.aws&#45;ec2.tls_private_key.private_key (expand)</title>
<path fill="none" stroke="black" d="M1375.25,-504.12C1329.35,-482.56 1262.2,-440.49 1262.2,-379 1262.2,-379 1262.2,-379 1262.2,-305 1262.2,-264.88 1266.62,-218.57 1269.85,-190.03"/>
<polygon fill="black" stroke="black" points="1273.34,-190.36 1271.03,-180.02 1266.39,-189.54 1273.34,-190.36"/>
</g>
<!-- [root] root -->
<g id="node32" class="node">
<title>[root] root</title>
<ellipse fill="none" stroke="black" cx="1737.2" cy="-594" rx="58.49" ry="18"/>
<text text-anchor="middle" x="1737.2" y="-590.3" font-family="Times,serif" font-size="14.00">[root] root</text>
</g>
<!-- [root] root&#45;&gt;[root] meta.count&#45;boundary (EachMode fixup) -->
<g id="edge46" class="edge">
<title>[root] root&#45;&gt;[root] meta.count&#45;boundary (EachMode fixup)</title>
<path fill="none" stroke="black" d="M1788.74,-585.24C1861.48,-574.29 1996.06,-554.03 2091.92,-539.6"/>
<polygon fill="black" stroke="black" points="2092.58,-543.04 2101.94,-538.09 2091.53,-536.12 2092.58,-543.04"/>
</g>
<!-- [root] root&#45;&gt;[root] provider[&quot;registry.terraform.io/hashicorp/aws&quot;] (close) -->
<g id="edge47" class="edge">
<title>[root] root&#45;&gt;[root] provider[&quot;registry.terraform.io/hashicorp/aws&quot;] (close)</title>
<path fill="none" stroke="black" d="M1737.2,-575.87C1737.2,-551.67 1737.2,-507.21 1737.2,-478.39"/>
<polygon fill="black" stroke="black" points="1740.7,-478.19 1737.2,-468.19 1733.7,-478.19 1740.7,-478.19"/>
</g>
<!-- [root] root&#45;&gt;[root] provider[&quot;registry.terraform.io/hashicorp/http&quot;] (close) -->
<g id="edge48" class="edge">
<title>[root] root&#45;&gt;[root] provider[&quot;registry.terraform.io/hashicorp/http&quot;] (close)</title>
<path fill="none" stroke="black" d="M1794.16,-589.58C2060.69,-573.16 3185.87,-498.88 3521.2,-396 3573.2,-380.05 3628.56,-350.06 3663.48,-329.33"/>
<polygon fill="black" stroke="black" points="3665.57,-332.16 3672.34,-324.01 3661.96,-326.16 3665.57,-332.16"/>
</g>
<!-- [root] root&#45;&gt;[root] provider[&quot;registry.terraform.io/hashicorp/random&quot;] (close) -->
<g id="edge49" class="edge">
<title>[root] root&#45;&gt;[root] provider[&quot;registry.terraform.io/hashicorp/random&quot;] (close)</title>
<path fill="none" stroke="black" d="M1678.52,-593.5C1544.15,-593.76 1218.34,-589.14 1122.2,-540 1029.91,-492.83 962.07,-383.35 934.62,-333.08"/>
<polygon fill="black" stroke="black" points="937.63,-331.29 929.82,-324.13 931.46,-334.6 937.63,-331.29"/>
</g>
<!-- [root] root&#45;&gt;[root] provider[&quot;registry.terraform.io/hashicorp/tls&quot;] (close) -->
<g id="edge50" class="edge">
<title>[root] root&#45;&gt;[root] provider[&quot;registry.terraform.io/hashicorp/tls&quot;] (close)</title>
<path fill="none" stroke="black" d="M1691.01,-582.9C1641.74,-572.12 1562.62,-554.81 1502.07,-541.57"/>
<polygon fill="black" stroke="black" points="1502.66,-538.11 1492.14,-539.39 1501.16,-544.95 1502.66,-538.11"/>
</g>
</g>
</svg>
